# xmcd CD database file
#
# Track frame offsets:
#	150
#	20975
#	33950
#
# Disc length: 746 seconds
#
# Revision: 0
# Processed by: cddbd v1.5PL3 Copyright (c) Steve Scherf et al.
# Submitted via: CDex 1.50
#
DISCID=1f02e803
DTITLE=チコチェアー - 夕暮れシーサイドビーチ
DYEAR=1900
DGENRE=JPop
TTITLE0=夕暮れシーサイドビーチ
TTITLE1=クラゲ３時
TTITLE2=嵐が丘
EXTD=
EXTT0=
EXTT1=
EXTT2=
PLAYORDER=
